<mxfile host="app.diagrams.net" modified="2021-10-28T12:34:30.124Z" agent="5.0 (Macintosh; Intel Mac OS X 10_15_7) AppleWebKit/537.36 (KHTML, like Gecko) Chrome/91.0.4472.114 Safari/537.36" etag="jO3kPT1U_AzqhcLSmFw_" version="15.6.1" type="github">
  <diagram id="kgpKYQtTHZ0yAKxKKP6v" name="Page-1">
    <mxGraphModel dx="1298" dy="724" grid="1" gridSize="10" guides="1" tooltips="1" connect="1" arrows="1" fold="1" page="1" pageScale="1" pageWidth="850" pageHeight="1100" math="0" shadow="0">
      <root>
        <mxCell id="0" />
        <mxCell id="1" parent="0" />
        <mxCell id="v89tIRyIs-adTZuMQDM9-2" value="createState" style="rounded=1;whiteSpace=wrap;html=1;" vertex="1" parent="1">
          <mxGeometry x="350" y="110" width="120" height="60" as="geometry" />
        </mxCell>
        <mxCell id="v89tIRyIs-adTZuMQDM9-3" value="initState" style="rounded=1;whiteSpace=wrap;html=1;" vertex="1" parent="1">
          <mxGeometry x="350" y="240" width="120" height="60" as="geometry" />
        </mxCell>
        <mxCell id="v89tIRyIs-adTZuMQDM9-8" value="" style="rounded=0;whiteSpace=wrap;html=1;fillColor=#99FF33;strokeColor=#82b366;gradientColor=#97d077;" vertex="1" parent="1">
          <mxGeometry x="40" y="50" width="40" height="20" as="geometry" />
        </mxCell>
        <mxCell id="v89tIRyIs-adTZuMQDM9-9" value="" style="rounded=0;whiteSpace=wrap;html=1;fontColor=#ffffff;fillColor=#3399FF;strokeColor=#2D7600;" vertex="1" parent="1">
          <mxGeometry x="210" y="50" width="40" height="20" as="geometry" />
        </mxCell>
        <mxCell id="v89tIRyIs-adTZuMQDM9-10" value="" style="rounded=0;whiteSpace=wrap;html=1;fontColor=#ffffff;fillColor=#FF3333;strokeColor=#2D7600;" vertex="1" parent="1">
          <mxGeometry x="150" y="50" width="40" height="20" as="geometry" />
        </mxCell>
        <mxCell id="v89tIRyIs-adTZuMQDM9-11" value="" style="rounded=0;whiteSpace=wrap;html=1;fillColor=#00FF00;strokeColor=#36393d;" vertex="1" parent="1">
          <mxGeometry x="100" y="50" width="40" height="20" as="geometry" />
        </mxCell>
      </root>
    </mxGraphModel>
  </diagram>
</mxfile>
